<svg id="Gradient" height="512" viewBox="0 0 512 512" width="512" xmlns="http://www.w3.org/2000/svg" xmlns:xlink="http://www.w3.org/1999/xlink"><linearGradient id="linear-gradient" gradientUnits="userSpaceOnUse" x1="256" x2="256" y1="496" y2="15.991"><stop offset="0" stop-color="#12c2e9"/><stop offset=".5" stop-color="#c471ed"/><stop offset="1" stop-color="#f64f59"/></linearGradient><path d="m88 368v-48a8 8 0 0 1 16 0v48a8 8 0 0 1 -16 0zm408-136v48a8 8 0 0 1 -6.927 7.92l-22.641 181.123c-1.921 15.368-15.58 26.957-31.774 26.957h-357.316c-16.194 0-29.853-11.589-31.774-26.957l-22.641-181.123a8 8 0 0 1 -6.927-7.92v-48a8 8 0 0 1 8-8h109.931l75.731-192.771a24.009 24.009 0 0 1 46.338 8.128 24.006 24.006 0 0 1 46.338-8.128l75.731 192.771h109.931a8 8 0 0 1 8 8zm-223.445-189.07 85.074 216.554 14.892-5.85-85.076-216.554a8 8 0 1 0 -14.89 5.85zm60.229 197.07h-153.568l-12.571 32h178.71zm-147.284-16h141l-68.838-175.219a24.023 24.023 0 0 1 -1.662-8.022 24.023 24.023 0 0 1 -1.662 8.022zm-46.023 29.634 14.892 5.85 85.076-216.554a8 8 0 1 0 -14.89-5.851zm-107.477 18.366h110.472l-16.289-6.4a8 8 0 0 1 -4.521-10.371l5.983-15.229h-95.645zm440.938 16h-433.876l22.383 179.059c.922 7.378 7.755 12.941 15.897 12.941h357.316c8.141 0 14.975-5.563 15.9-12.941zm7.062-48h-95.645l5.983 15.229a8 8 0 0 1 -4.521 10.371l-16.289 6.4h110.472zm-384 216a8 8 0 0 0 8-8v-48a8 8 0 0 0 -16 0v48a8 8 0 0 0 8 8zm32-80a8 8 0 0 0 8-8v-48a8 8 0 0 0 -16 0v48a8 8 0 0 0 8 8zm0 80a8 8 0 0 0 8-8v-48a8 8 0 0 0 -16 0v48a8 8 0 0 0 8 8zm32-80a8 8 0 0 0 8-8v-48a8 8 0 0 0 -16 0v48a8 8 0 0 0 8 8zm0 80a8 8 0 0 0 8-8v-48a8 8 0 0 0 -16 0v48a8 8 0 0 0 8 8zm32-80a8 8 0 0 0 8-8v-48a8 8 0 0 0 -16 0v48a8 8 0 0 0 8 8zm0 80a8 8 0 0 0 8-8v-48a8 8 0 0 0 -16 0v48a8 8 0 0 0 8 8zm128-80a8 8 0 0 0 8-8v-48a8 8 0 0 0 -16 0v48a8 8 0 0 0 8 8zm0 80a8 8 0 0 0 8-8v-48a8 8 0 0 0 -16 0v48a8 8 0 0 0 8 8zm32-80a8 8 0 0 0 8-8v-48a8 8 0 0 0 -16 0v48a8 8 0 0 0 8 8zm0 80a8 8 0 0 0 8-8v-48a8 8 0 0 0 -16 0v48a8 8 0 0 0 8 8zm32-80a8 8 0 0 0 8-8v-48a8 8 0 0 0 -16 0v48a8 8 0 0 0 8 8zm0 80a8 8 0 0 0 8-8v-48a8 8 0 0 0 -16 0v48a8 8 0 0 0 8 8zm32-80a8 8 0 0 0 8-8v-48a8 8 0 0 0 -16 0v48a8 8 0 0 0 8 8zm0 80a8 8 0 0 0 8-8v-48a8 8 0 0 0 -16 0v48a8 8 0 0 0 8 8zm-160-80a8 8 0 0 0 8-8v-48a8 8 0 0 0 -16 0v48a8 8 0 0 0 8 8zm0 80a8 8 0 0 0 8-8v-48a8 8 0 0 0 -16 0v48a8 8 0 0 0 8 8zm-32-80a8 8 0 0 0 8-8v-48a8 8 0 0 0 -16 0v48a8 8 0 0 0 8 8zm0 80a8 8 0 0 0 8-8v-48a8 8 0 0 0 -16 0v48a8 8 0 0 0 8 8zm64-80a8 8 0 0 0 8-8v-48a8 8 0 0 0 -16 0v48a8 8 0 0 0 8 8zm0 80a8 8 0 0 0 8-8v-48a8 8 0 0 0 -16 0v48a8 8 0 0 0 8 8z" fill="url(#linear-gradient)"/></svg>